# xmcd
#
# Track frame offsets:
#	150
#	14272
#	28417
#	42520
#	56790
#	70992
#	84520
#	98937
#	104347
#	114022
#	119992
#	129355
#	138470
#	144635
#	146910
#	148370
#	153335
#	157865
#	164870
#	170375
#	175717
#	181727
#	186515
#	191745
#	200170
#	209312
#	214495
#
# Disc length: 2925 seconds
#
# Revision: 1
# Processed by: cddbd v1.5.1PL0 Copyright (c) Steve Scherf et al.
# Submitted via: CDex 1.50Beta5
#
DISCID=ae0b6b1b
DTITLE=サウンドトラック - デジタル最新録音&マスタリングによる 効果音大全集
DYEAR=1900
DGENRE=Soundtrack
TTITLE0=幽霊屋敷(洋館)
TTITLE1=草木も眠る丑三つ時
TTITLE2=土蔵の中
TTITLE3=地下水道
TTITLE4=廃墟ビル
TTITLE5=墓地の怪
TTITLE6=霧深いロンドン
TTITLE7=ドラキュラの夜
TTITLE8=水牢の責め
TTITLE9=拷問部屋
TTITLE10=地獄の釜
TTITLE11=雪女の現れそうなとき
TTITLE12=さまよえる廃船
TTITLE13=ホームランの打球と歓声
TTITLE14=ゴルフスイング
TTITLE15=水泳
TTITLE16=小学校の運動会
TTITLE17=マラソン・走る
TTITLE18=卓球
TTITLE19=テニス
TTITLE20=サッカーの練習
TTITLE21=バスケットボールの練習
TTITLE22=ボクシングの打ち合い
TTITLE23=柔道の乱取り
TTITLE24=剣道の試合
TTITLE25=観衆の歓声
TTITLE26=競馬の群馬疾走
EXTD=
EXTT0=
EXTT1=
EXTT2=
EXTT3=
EXTT4=
EXTT5=
EXTT6=
EXTT7=
EXTT8=
EXTT9=
EXTT10=
EXTT11=
EXTT12=
EXTT13=
EXTT14=
EXTT15=
EXTT16=
EXTT17=
EXTT18=
EXTT19=
EXTT20=
EXTT21=
EXTT22=
EXTT23=
EXTT24=
EXTT25=
EXTT26=
PLAYORDER=
